<?xml version="1.0" standalone="no"?>
<!DOCTYPE svg PUBLIC "-//W3C//DTD SVG 20010904//EN"
 "http://www.w3.org/TR/2001/REC-SVG-20010904/DTD/svg10.dtd">
<svg version="1.0" xmlns="http://www.w3.org/2000/svg"
 width="267.000000pt" height="267.000000pt" viewBox="0 0 267.000000 267.000000"
 preserveAspectRatio="xMidYMid meet">

<g transform="translate(0.000000,267.000000) scale(0.100000,-0.100000)"
fill="#000000" stroke="none">
<path d="M1165 2663 c-286 -37 -553 -164 -758 -362 -205 -197 -331 -426 -387
-700 -28 -139 -28 -392 0 -532 82 -401 346 -742 718 -928 148 -74 376 -137
469 -129 l38 3 3 59 c2 32 -1 63 -6 68 -4 4 -51 15 -102 24 -593 95 -1022 620
-997 1219 12 289 120 548 315 756 148 158 301 256 505 324 150 50 149 51 145
-37 l-3 -71 -69 -19 c-161 -44 -320 -139 -446 -267 -131 -132 -211 -267 -267
-448 -25 -82 -27 -101 -27 -278 -1 -228 13 -297 99 -470 147 -299 425 -507
753 -565 109 -19 103 -31 100 212 l-3 211 -85 27 c-104 32 -165 67 -241 137
-199 184 -250 466 -129 710 80 161 227 275 418 323 l42 11 0 64 c0 54 -3 65
-19 70 -30 9 -147 -22 -226 -60 -156 -75 -273 -192 -350 -350 -60 -125 -79
-217 -73 -363 6 -136 34 -237 95 -341 79 -136 239 -273 374 -322 l59 -22 0
-74 0 -73 -27 6 c-61 14 -180 70 -249 116 -186 124 -316 308 -375 528 -32 119
-32 319 0 435 24 89 84 221 131 291 127 184 338 322 564 369 44 9 83 18 88 21
13 9 10 408 -4 422 -12 12 -17 12 -73 5z"/>
<path d="M1412 2648 c-17 -17 -15 -94 2 -111 8 -8 41 -17 74 -21 154 -17 358
-95 503 -191 259 -173 454 -473 510 -785 19 -107 17 -326 -4 -428 -50 -237
-160 -444 -321 -607 -140 -141 -306 -242 -499 -304 -140 -45 -137 -46 -137 42
l0 73 83 24 c45 13 125 45 178 72 439 223 659 725 528 1208 -27 99 -106 259
-168 341 -166 218 -423 371 -682 405 -79 11 -79 11 -79 -210 0 -105 4 -197 8
-204 5 -6 34 -19 66 -27 219 -57 386 -226 442 -447 23 -90 15 -261 -16 -343
-72 -187 -242 -342 -425 -386 -68 -16 -75 -24 -75 -79 0 -68 15 -77 93 -61
261 54 489 274 558 538 28 107 27 269 -1 377 -62 242 -226 421 -472 520 l-38
15 0 69 c0 38 3 71 6 74 7 8 126 -32 184 -62 305 -155 493 -460 493 -800 0
-128 -17 -221 -59 -326 -115 -293 -358 -494 -672 -559 -42 -9 -80 -21 -84 -28
-4 -7 -8 -98 -8 -203 0 -224 -2 -220 87 -209 507 60 948 422 1107 909 126 385
64 820 -164 1162 -67 100 -252 286 -350 351 -152 101 -310 168 -479 203 -113
23 -172 25 -189 8z"/>
</g>
</svg>
