<svg xmlns="http://www.w3.org/2000/svg" width="51" height="55" viewBox="0 0 51 55"><g><g clip-path="url(#clip-0AA08C70-7200-0834-FF91-69254F7CB535)"><g><path fill="#24a06d" d="M44.22 43.377c3.352 0 6.069-2.72 6.069-6.074a6.071 6.071 0 0 0-6.07-6.073 6.071 6.071 0 0 0-6.069 6.073 6.071 6.071 0 0 0 6.07 6.074z"/></g><g><path fill="#58b3ca" d="M6.07 23.427c3.352 0 6.069-2.72 6.069-6.074a6.071 6.071 0 0 0-6.07-6.073A6.071 6.071 0 0 0 0 17.353a6.071 6.071 0 0 0 6.07 6.074z"/></g><g><path fill="#a3e1c2" d="M44.225 21.686a4.337 4.337 0 0 0 4.336-4.338 4.337 4.337 0 0 0-4.336-4.338 4.337 4.337 0 0 0-4.335 4.338 4.337 4.337 0 0 0 4.335 4.338z"/></g><g><path fill="#ebc627" d="M6.065 41.646a4.337 4.337 0 0 0 4.336-4.338 4.337 4.337 0 0 0-4.336-4.338 4.337 4.337 0 0 0-4.335 4.338 4.337 4.337 0 0 0 4.335 4.338z"/></g><g><path fill="#baa3bf" d="M25.15 12.147c3.352 0 6.069-2.72 6.069-6.074A6.071 6.071 0 0 0 25.149 0a6.071 6.071 0 0 0-6.069 6.073 6.071 6.071 0 0 0 6.07 6.074z"/></g><g><path fill="#e15c18" d="M25.15 54.657c3.352 0 6.069-2.72 6.069-6.074a6.071 6.071 0 0 0-6.07-6.073 6.071 6.071 0 0 0-6.069 6.073 6.071 6.071 0 0 0 6.07 6.074z"/></g></g></g></svg>